<svg xmlns="http://www.w3.org/2000/svg" viewBox="0 0 487.35 147.96"><defs><style>.cls-1{fill:#48d8e5;}.cls-2{fill:#21a0ab;}.cls-3{fill:none;}</style></defs><g id="레이어_2" data-name="레이어 2"><g id="물결있"><path class="cls-1" d="M102.43,47.58A33.78,33.78,0,0,1,96.2,59.75,31.14,31.14,0,0,1,92,64.21a31.53,31.53,0,0,1-5.76,3.91,32,32,0,0,1-7.37,2.78,35.81,35.81,0,0,1-9.25,1,34.5,34.5,0,0,1-13.22-2.42,29.73,29.73,0,0,1-10.76-7A30.32,30.32,0,0,1,38.33,51.3a39.65,39.65,0,0,1-2.64-15.15A42.93,42.93,0,0,1,38.14,21,31.56,31.56,0,0,1,45,9.66,29.09,29.09,0,0,1,55.61,2.51,35.57,35.57,0,0,1,69.3,0,41.17,41.17,0,0,1,78,.93a43.62,43.62,0,0,1,7,2.42,48.44,48.44,0,0,1,5.38,3.43,40.6,40.6,0,0,1,4.06,4,32.89,32.89,0,0,1,5.85,10.69H88.65a5.4,5.4,0,0,1-2.36-.38,3.15,3.15,0,0,1-1.51-.92,4.09,4.09,0,0,1-1.13-1.58c-.38-.56-.85-1.31-1.32-2.14s-1.14-1.49-1.8-2.32A18,18,0,0,0,78,12a32.05,32.05,0,0,0-3.68-1.58,20.61,20.61,0,0,0-5-.56,14.29,14.29,0,0,0-6.61,1.77,17.59,17.59,0,0,0-5.85,5.11,25.9,25.9,0,0,0-4.25,8.17A34.72,34.72,0,0,0,51,36.15a29.61,29.61,0,0,0,2,11.43,24.38,24.38,0,0,0,4.73,7.8,17.71,17.71,0,0,0,6,4.47,13.31,13.31,0,0,0,5.85,1.48A14.44,14.44,0,0,0,76,59.94a20.93,20.93,0,0,0,4.63-3,21.65,21.65,0,0,0,2.92-3.15c.66-.93,1-1.4,1.14-1.58a17.21,17.21,0,0,1,1.6-2.42,5.28,5.28,0,0,1,1.51-1.39,6.36,6.36,0,0,1,1.79-.65,17.48,17.48,0,0,1,2.65-.19Z"/><path class="cls-1" d="M158.6.74v63a17.69,17.69,0,0,1-.28,3.53,4.2,4.2,0,0,1-1.13,2.32,4.71,4.71,0,0,1-2.36,1.21,15.87,15.87,0,0,1-4,.37h-6.32l-.1-32H116.87V63.75a17.69,17.69,0,0,1-.28,3.53,4.86,4.86,0,0,1-1,2.32,4.63,4.63,0,0,1-2.36,1.21,15.52,15.52,0,0,1-3.87.37h-6.51V6.41c0-2.23.56-3.81,1.7-4.55a8.84,8.84,0,0,1,5-1.12h7.36v28.9l27.57.1V6.41c0-2.23.57-3.81,1.7-4.55a9,9,0,0,1,5-1.12Z"/><path class="cls-1" d="M228.56,71.18H216.94a3.88,3.88,0,0,1-2.36-.65,5.08,5.08,0,0,1-2-2.32,22.28,22.28,0,0,1-2.17-5l-4-11.24H180.12l-3.87,11.24a38.85,38.85,0,0,1-2.07,5,7.63,7.63,0,0,1-2.08,2.32,4.59,4.59,0,0,1-2.46.65H158c4.44-11.89,8.41-22.58,12-32.06,1.51-4,2.93-7.9,4.44-11.8,1.32-3.81,2.64-7.25,3.78-10.31s2.07-5.39,2.83-7.35,1-2.78,1-2.88a11,11,0,0,1,2.64-4.46c.94-.83,2.64-1.3,5.1-1.3h12.37Zm-45.23-28.8h19.83l-9.91-29Z"/><path class="cls-1" d="M241.58,10.59V30.94l34.93.1v6.41a2.91,2.91,0,0,1-.85,2.14,2.74,2.74,0,0,1-2.17.93H241.58V58.36a2.49,2.49,0,0,0,1.13,2.14,3.38,3.38,0,0,0,2.46.93h33.61v6.78a2.44,2.44,0,0,1-.95,2,3.11,3.11,0,0,1-2.07.84H237.62c-3.59,0-6.24-.84-7.75-2.51s-2.36-4.18-2.36-7.9V6.69c0-2.23.48-3.81,1.61-4.55A8.41,8.41,0,0,1,234,1h44.75V7.43A3.35,3.35,0,0,1,278,9.66a2.81,2.81,0,0,1-2.26.93Z"/><path class="cls-1" d="M366.36.56h7.36V38.1c0,2.79-.09,5.58-.09,8.27a52.46,52.46,0,0,1-1,8A27.31,27.31,0,0,1,370,61.43a17.49,17.49,0,0,1-4.72,5.76A22.8,22.8,0,0,1,357.49,71a42.17,42.17,0,0,1-11.62,1.39,33.39,33.39,0,0,1-12.36-2,21.55,21.55,0,0,1-8.12-4.83,17.91,17.91,0,0,1-4.63-6.69,29.35,29.35,0,0,1-2.08-7.16,33.31,33.31,0,0,1-.66-6.6V6.23c0-2.23.57-3.81,1.7-4.56A8.52,8.52,0,0,1,324.63.56h7.55v40.7a51.76,51.76,0,0,0,.48,7.71,18.58,18.58,0,0,0,1.79,6.79,10.32,10.32,0,0,0,4.15,4.74c1.7,1.3,4.16,1.85,7.27,1.85a12.73,12.73,0,0,0,7.37-1.85,10.85,10.85,0,0,0,4.15-4.74,26.53,26.53,0,0,0,1.8-6.79c.18-2.51.37-5.11.47-7.8V6.23c0-2.23.56-3.81,1.7-4.56A8.83,8.83,0,0,1,366.36.56Z"/><path class="cls-1" d="M448.49,1V63.75a17.69,17.69,0,0,1-.28,3.53,4.2,4.2,0,0,1-1.13,2.32,4.71,4.71,0,0,1-2.36,1.21,15.87,15.87,0,0,1-4,.37h-6.32V23.23l-11.71,37c-.76,2-1.42,3.81-2,5.11a13,13,0,0,1-2.18,3.34,5.28,5.28,0,0,1-2.45,1.77A8.43,8.43,0,0,1,413,71h-4.82L392.89,23.51V63.75a17.59,17.59,0,0,1-.29,3.53,4.76,4.76,0,0,1-1,2.32,4.63,4.63,0,0,1-2.36,1.21,15.79,15.79,0,0,1-4,.37h-6.42V6.69c0-2.23.57-3.81,1.7-4.55a8.76,8.76,0,0,1,5-1.12h9.73c.28.93.75,2.42,1.51,4.46s1.51,4.46,2.45,7.25,1.79,5.86,2.93,9c1,3.34,2.07,6.59,3.21,9.75q3.67,11.43,8.21,25.09c2.27-6.78,4.53-13.38,6.7-19.88.95-2.7,1.89-5.58,2.93-8.55s1.89-5.76,2.83-8.65,1.8-5.57,2.65-8.17,1.51-4.93,2.26-7.06a3.79,3.79,0,0,1,2.65-2.79A15.24,15.24,0,0,1,437.26,1Z"/><rect class="cls-1" x="286.91" y="23.67" width="22.83" height="22.83" rx="2.64"/><rect class="cls-2" x="286.91" y="51.21" width="22.83" height="22.83" rx="2.64"/><path class="cls-3" d="M193.3,13.29,183.82,41,187,42.28h16.21Z"/><path class="cls-3" d="M430.47,35.8c1.35-.37,2.7-.73,4-1.1V23.14Z"/><path class="cls-3" d="M392.94,44.54c2.16-.44,4.29-.87,6.38-1.31l-6.38-19.81Z"/><path class="cls-1" d="M183.38,42.28H187L183.82,41Z"/><path class="cls-1" d="M484.52,14.72c-5.27,4.15-17.34,9.8-36,15.77V63.66a17.76,17.76,0,0,1-.28,3.53,4.24,4.24,0,0,1-1.13,2.32,4.79,4.79,0,0,1-2.36,1.21,15.87,15.87,0,0,1-4,.37h-6.32V34.7c-1.31.37-2.66.73-4,1.1l-7.7,24.32c-.76,2.05-1.42,3.81-2,5.12a13,13,0,0,1-2.18,3.34,5.28,5.28,0,0,1-2.45,1.77,8.45,8.45,0,0,1-3.12.55h-4.81l-8.91-27.67c-2.09.44-4.22.87-6.38,1.31V63.66a17.66,17.66,0,0,1-.29,3.53,4.81,4.81,0,0,1-1,2.32,4.71,4.71,0,0,1-2.36,1.21,15.79,15.79,0,0,1-4,.37h-6.42V47.21q-2.64.48-5.34.94a44.83,44.83,0,0,1-.89,6.12,27.48,27.48,0,0,1-2.55,7.06,17.49,17.49,0,0,1-4.72,5.76,22.62,22.62,0,0,1-7.83,3.81,42.14,42.14,0,0,1-11.62,1.4,33.39,33.39,0,0,1-12.36-2,21.43,21.43,0,0,1-8.12-4.84,17.91,17.91,0,0,1-4.63-6.69,30.15,30.15,0,0,1-1.11-3c-3.38.37-6.67.7-9.91,1V69.89A4.06,4.06,0,0,1,305.73,74H291A4.06,4.06,0,0,1,287,69.89V58.2a297.39,297.39,0,0,1-45.33-1.76v1.83a2.46,2.46,0,0,0,1.13,2.13,3.38,3.38,0,0,0,2.46.93h33.61v6.79a2.46,2.46,0,0,1-.95,1.95,3.1,3.1,0,0,1-2.07.83H237.67c-3.59,0-6.24-.83-7.75-2.5s-2.36-4.19-2.36-7.9V54.3c-1.95-.36-3.85-.73-5.68-1.12l6.73,17.91H217a4,4,0,0,1-2.36-.65,5.08,5.08,0,0,1-2-2.32,21.83,21.83,0,0,1-2.17-5l-4-11.25H180.17L176.3,63.1a38.85,38.85,0,0,1-2.07,5,7.63,7.63,0,0,1-2.08,2.32,4.7,4.7,0,0,1-2.46.65H158.08c4.44-11.89,8.4-22.58,12-32.06.27-.7.52-1.38.78-2.08-3.34-1-7.45-2.16-12.2-3.45V63.66a17.76,17.76,0,0,1-.28,3.53,4.24,4.24,0,0,1-1.13,2.32,4.79,4.79,0,0,1-2.36,1.21,15.87,15.87,0,0,1-4,.37h-6.32l-.1-32H116.92V63.66a17.76,17.76,0,0,1-.28,3.53,4.9,4.9,0,0,1-1,2.32,4.71,4.71,0,0,1-2.36,1.21,15.52,15.52,0,0,1-3.87.37h-6.51V24.32a176.55,176.55,0,0,0-29.33,1.23c-7.78,1-15.14,2.37-22,3.95A42.55,42.55,0,0,0,51,36.06a29.61,29.61,0,0,0,2,11.43,24.54,24.54,0,0,0,4.72,7.8,17.81,17.81,0,0,0,6.05,4.46,13.33,13.33,0,0,0,5.85,1.49,14.58,14.58,0,0,0,6.42-1.39,20.93,20.93,0,0,0,4.63-3,21.68,21.68,0,0,0,2.92-3.16c.66-.93,1-1.39,1.14-1.58a17.06,17.06,0,0,1,1.6-2.41,5.31,5.31,0,0,1,1.51-1.4,6.69,6.69,0,0,1,1.79-.65,19,19,0,0,1,2.65-.18h10.19a34,34,0,0,1-6.23,12.17A30.67,30.67,0,0,1,92,64.12,30.34,30.34,0,0,1,86.24,68a31.49,31.49,0,0,1-7.36,2.79,36.27,36.27,0,0,1-9.25,1,34.49,34.49,0,0,1-13.22-2.41,29.86,29.86,0,0,1-10.76-7A30.32,30.32,0,0,1,38.38,51.2a39.56,39.56,0,0,1-2.64-15.14c0-.79,0-1.57,0-2.34A217,217,0,0,0,0,48.11v62.42A37.43,37.43,0,0,0,37.43,148H449.92a37.43,37.43,0,0,0,37.43-37.43V14.44A2.46,2.46,0,0,0,484.52,14.72Z"/><path class="cls-1" d="M419.65,38.59q-5.34,1.32-11.07,2.61c1.58,4.86,3.25,9.93,5,15.3C415.65,50.4,417.68,44.46,419.65,38.59Z"/><path class="cls-1" d="M143,29.64a241.63,241.63,0,0,0-26.07-4.29v4.2Z"/><path class="cls-1" d="M338.65,60.4c1.7,1.3,4.16,1.86,7.27,1.86a12.75,12.75,0,0,0,7.37-1.86,10.74,10.74,0,0,0,4.15-4.74A24,24,0,0,0,359,50.55q-12,1.86-25.12,3.54c.2.54.43,1.07.67,1.57A10.22,10.22,0,0,0,338.65,60.4Z"/><path class="cls-2" d="M38.38,51.2a30.32,30.32,0,0,0,7.27,11.25,29.86,29.86,0,0,0,10.76,7,34.49,34.49,0,0,0,13.22,2.41,36.27,36.27,0,0,0,9.25-1A31.49,31.49,0,0,0,86.24,68,30.34,30.34,0,0,0,92,64.12a30.67,30.67,0,0,0,4.25-4.46,34,34,0,0,0,6.23-12.17H92.29a19,19,0,0,0-2.65.18,6.69,6.69,0,0,0-1.79.65,5.31,5.31,0,0,0-1.51,1.4,17.06,17.06,0,0,0-1.6,2.41c-.1.19-.48.65-1.14,1.58a21.68,21.68,0,0,1-2.92,3.16,20.93,20.93,0,0,1-4.63,3,14.58,14.58,0,0,1-6.42,1.39,13.33,13.33,0,0,1-5.85-1.49,17.81,17.81,0,0,1-6.05-4.46A24.54,24.54,0,0,1,53,47.49a29.61,29.61,0,0,1-2-11.43,42.55,42.55,0,0,1,.49-6.56c-5.58,1.29-10.83,2.72-15.73,4.22,0,.77,0,1.55,0,2.34A39.56,39.56,0,0,0,38.38,51.2Z"/><path class="cls-2" d="M109.37,71.09a15.52,15.52,0,0,0,3.87-.37,4.71,4.71,0,0,0,2.36-1.21,4.9,4.9,0,0,0,1-2.32,17.76,17.76,0,0,0,.28-3.53V39.12h27.57l.1,32h6.32a15.87,15.87,0,0,0,4-.37,4.79,4.79,0,0,0,2.36-1.21,4.24,4.24,0,0,0,1.13-2.32,17.76,17.76,0,0,0,.28-3.53V33.5c-4.64-1.26-9.9-2.6-15.66-3.86l-26.07-.09v-4.2c-4.54-.49-9.24-.85-14.06-1V71.09Z"/><path class="cls-2" d="M158.08,71.09h11.61a4.7,4.7,0,0,0,2.46-.65,7.63,7.63,0,0,0,2.08-2.32,38.85,38.85,0,0,0,2.07-5l3.87-11.25h26.34l4,11.25a21.83,21.83,0,0,0,2.17,5,5.08,5.08,0,0,0,2,2.32,4,4,0,0,0,2.36.65h11.62l-6.73-17.91A200.49,200.49,0,0,1,187,42.28h-3.62l.44-1.28a56.3,56.3,0,0,0-7.19-2.5c-1.54-.36-3.49-.9-5.78-1.55-.26.7-.51,1.38-.78,2.08C166.48,48.51,162.52,59.2,158.08,71.09Z"/><path class="cls-2" d="M229.92,68.4c1.51,1.67,4.16,2.5,7.75,2.5h38.14a3.1,3.1,0,0,0,2.07-.83,2.46,2.46,0,0,0,.95-1.95V61.33H245.22a3.38,3.38,0,0,1-2.46-.93,2.46,2.46,0,0,1-1.13-2.13V56.44c-5-.61-9.71-1.33-14.07-2.14v6.2C227.56,64.21,228.32,66.82,229.92,68.4Z"/><path class="cls-2" d="M325.44,65.51a21.43,21.43,0,0,0,8.12,4.84,33.39,33.39,0,0,0,12.36,2,42.14,42.14,0,0,0,11.62-1.4,22.62,22.62,0,0,0,7.83-3.81,17.49,17.49,0,0,0,4.72-5.76,27.48,27.48,0,0,0,2.55-7.06,44.83,44.83,0,0,0,.89-6.12q-7.08,1.23-14.58,2.4a24,24,0,0,1-1.51,5.11,10.74,10.74,0,0,1-4.15,4.74,12.75,12.75,0,0,1-7.37,1.86c-3.11,0-5.57-.56-7.27-1.86a10.22,10.22,0,0,1-4.15-4.74c-.24-.5-.47-1-.67-1.57-4.3.55-8.66,1.08-13.14,1.59l-1,.11a30.15,30.15,0,0,0,1.11,3A17.91,17.91,0,0,0,325.44,65.51Z"/><path class="cls-2" d="M408.23,70.9H413a8.45,8.45,0,0,0,3.12-.55,5.28,5.28,0,0,0,2.45-1.77,13,13,0,0,0,2.18-3.34c.56-1.31,1.22-3.07,2-5.12l7.7-24.32q-5.19,1.39-10.82,2.79c-2,5.87-4,11.81-6,17.91-1.78-5.37-3.45-10.44-5-15.3-3,.68-6.09,1.36-9.26,2Z"/><path class="cls-2" d="M385.29,71.09a15.79,15.79,0,0,0,4-.37,4.71,4.71,0,0,0,2.36-1.21,4.81,4.81,0,0,0,1-2.32,17.66,17.66,0,0,0,.29-3.53V44.54q-6.79,1.37-14.07,2.67V71.09Z"/><path class="cls-2" d="M434.48,71.09h6.32a15.87,15.87,0,0,0,4-.37,4.79,4.79,0,0,0,2.36-1.21,4.24,4.24,0,0,0,1.13-2.32,17.76,17.76,0,0,0,.28-3.53V30.49q-6.5,2.09-14.06,4.21Z"/><path class="cls-2" d="M291,74h14.71a4.06,4.06,0,0,0,4.06-4.06V56.78Q297.72,57.86,287,58.2V69.89A4.06,4.06,0,0,0,291,74Z"/></g></g></svg>