<svg xmlns="http://www.w3.org/2000/svg" viewBox="0 0 412.85 74.04"><defs><style>.cls-1{fill:#48d8e5;}.cls-2{fill:#21a0ab;}.cls-3{fill:none;}</style></defs><g id="레이어_2" data-name="레이어 2"><g id="레이어_3" data-name="레이어 3"><path class="cls-1" d="M66.75,47.58a34,34,0,0,1-6.24,12.17,31.14,31.14,0,0,1-4.24,4.46,31.53,31.53,0,0,1-5.76,3.91,32,32,0,0,1-7.37,2.78,35.81,35.81,0,0,1-9.25,1,34.41,34.41,0,0,1-13.21-2.42,29.68,29.68,0,0,1-10.77-7A30.32,30.32,0,0,1,2.64,51.3,39.65,39.65,0,0,1,0,36.15,42.93,42.93,0,0,1,2.45,21,31.44,31.44,0,0,1,9.35,9.66,29.05,29.05,0,0,1,19.92,2.51,35.57,35.57,0,0,1,33.61,0a41.17,41.17,0,0,1,8.68.93,43.62,43.62,0,0,1,7,2.42,48.44,48.44,0,0,1,5.38,3.43,40.6,40.6,0,0,1,4.06,4,32.89,32.89,0,0,1,5.85,10.69H53a5.4,5.4,0,0,1-2.36-.38,3.19,3.19,0,0,1-1.51-.92A4.09,4.09,0,0,1,48,18.59c-.38-.56-.85-1.31-1.32-2.14S45.5,15,44.84,14.13A18,18,0,0,0,42.29,12a32.05,32.05,0,0,0-3.68-1.58,20.61,20.61,0,0,0-5-.56A14.29,14.29,0,0,0,27,11.62a17.68,17.68,0,0,0-5.85,5.11A25.9,25.9,0,0,0,16.9,24.9a35,35,0,0,0-1.61,11.25,29.42,29.42,0,0,0,2,11.43A24.18,24.18,0,0,0,22,55.38a17.71,17.71,0,0,0,6,4.47,13.34,13.34,0,0,0,5.85,1.48,14.44,14.44,0,0,0,6.42-1.39,20.48,20.48,0,0,0,4.63-3,21.1,21.1,0,0,0,2.92-3.15c.67-.93,1-1.4,1.14-1.58a18.13,18.13,0,0,1,1.6-2.42,5.41,5.41,0,0,1,1.51-1.39,6.32,6.32,0,0,1,1.8-.65,17.22,17.22,0,0,1,2.64-.19Z"/><path class="cls-1" d="M122.91.74v63a17.69,17.69,0,0,1-.28,3.53,4.2,4.2,0,0,1-1.13,2.32,4.71,4.71,0,0,1-2.36,1.21,15.87,15.87,0,0,1-4,.37h-6.32l-.1-32H81.19V63.75a17.59,17.59,0,0,1-.29,3.53,4.76,4.76,0,0,1-1,2.32,4.63,4.63,0,0,1-2.36,1.21,15.47,15.47,0,0,1-3.87.37H67.12V6.41c0-2.23.57-3.81,1.7-4.55a8.84,8.84,0,0,1,5-1.12h7.37v28.9l27.56.1V6.41c0-2.23.57-3.81,1.7-4.55a9.09,9.09,0,0,1,5-1.12Z"/><path class="cls-1" d="M192.87,71.18H181.25a3.9,3.9,0,0,1-2.36-.65,5.08,5.08,0,0,1-2-2.32,22.75,22.75,0,0,1-2.17-5l-4-11.24H144.44l-3.87,11.24a38.61,38.61,0,0,1-2.08,5,7.63,7.63,0,0,1-2.08,2.32,4.55,4.55,0,0,1-2.45.65H122.34c4.44-11.89,8.41-22.58,12-32.06,1.52-4,2.93-7.9,4.44-11.8,1.32-3.81,2.65-7.25,3.78-10.31s2.07-5.39,2.83-7.35,1-2.78,1-2.88a11,11,0,0,1,2.64-4.46c.95-.83,2.65-1.3,5.1-1.3h12.37Zm-45.22-28.8h19.82l-9.91-29Z"/><path class="cls-1" d="M205.89,10.59V30.94l34.93.1v6.41a2.91,2.91,0,0,1-.85,2.14,2.74,2.74,0,0,1-2.17.93H205.89V58.36A2.48,2.48,0,0,0,207,60.5a3.37,3.37,0,0,0,2.45.93h33.61v6.78a2.44,2.44,0,0,1-1,2,3.11,3.11,0,0,1-2.07.84H201.93c-3.59,0-6.23-.84-7.74-2.51s-2.36-4.18-2.36-7.9V6.69c0-2.23.47-3.81,1.6-4.55A8.41,8.41,0,0,1,198.34,1h44.75V7.43a3.3,3.3,0,0,1-.76,2.23,2.81,2.81,0,0,1-2.26.93Z"/><path class="cls-1" d="M330.67.56H338V38.1c0,2.79-.1,5.58-.1,8.27a52.46,52.46,0,0,1-1,8,27,27,0,0,1-2.55,7.07,17.36,17.36,0,0,1-4.72,5.76A22.71,22.71,0,0,1,321.8,71a42.14,42.14,0,0,1-11.61,1.39,33.41,33.41,0,0,1-12.37-2,21.63,21.63,0,0,1-8.12-4.83,17.91,17.91,0,0,1-4.63-6.69A28.88,28.88,0,0,1,283,51.76a32.58,32.58,0,0,1-.66-6.6V6.23c0-2.23.56-3.81,1.69-4.56A8.52,8.52,0,0,1,288.94.56h7.56v40.7A51.76,51.76,0,0,0,297,49a18.58,18.58,0,0,0,1.79,6.79,10.34,10.34,0,0,0,4.16,4.74c1.7,1.3,4.15,1.85,7.27,1.85a12.71,12.71,0,0,0,7.36-1.85,10.85,10.85,0,0,0,4.15-4.74A26.53,26.53,0,0,0,323.5,49c.19-2.51.37-5.11.47-7.8V6.23c0-2.23.57-3.81,1.7-4.56A8.85,8.85,0,0,1,330.67.56Z"/><path class="cls-1" d="M412.8,1V63.75a17.69,17.69,0,0,1-.28,3.53,4.2,4.2,0,0,1-1.13,2.32A4.71,4.71,0,0,1,409,70.81a15.87,15.87,0,0,1-4,.37h-6.32V23.23L387,60.22c-.75,2-1.42,3.81-2,5.11a13.29,13.29,0,0,1-2.17,3.34,5.36,5.36,0,0,1-2.46,1.77,8.43,8.43,0,0,1-3.11.56h-4.82L357.2,23.51V63.75a17.59,17.59,0,0,1-.29,3.53,4.76,4.76,0,0,1-1,2.32,4.71,4.71,0,0,1-2.36,1.21,15.87,15.87,0,0,1-4,.37h-6.42V6.69c0-2.23.57-3.81,1.7-4.55a8.76,8.76,0,0,1,5-1.12h9.73c.28.93.75,2.42,1.51,4.46s1.51,4.46,2.45,7.25,1.8,5.86,2.93,9c1,3.34,2.08,6.59,3.21,9.75q3.68,11.43,8.21,25.09c2.27-6.78,4.53-13.38,6.71-19.88.94-2.7,1.88-5.58,2.92-8.55s1.89-5.76,2.83-8.65,1.8-5.57,2.65-8.17,1.51-4.93,2.26-7.06a3.83,3.83,0,0,1,2.65-2.79A15.24,15.24,0,0,1,401.57,1Z"/><rect class="cls-1" x="251.22" y="23.67" width="22.83" height="22.83" rx="2.64"/><rect class="cls-2" x="251.22" y="51.21" width="22.83" height="22.83" rx="2.64"/><path class="cls-3" d="M157.61,13.29,148.13,41l3.18,1.28h16.21Z"/><path class="cls-3" d="M394.78,35.8c1.36-.37,2.7-.73,4-1.1V23.14Z"/><path class="cls-3" d="M357.25,44.54c2.16-.44,4.29-.87,6.38-1.31l-6.38-19.81Z"/><path class="cls-2" d="M2.69,51.2A30.44,30.44,0,0,0,10,62.45a29.86,29.86,0,0,0,10.76,7,34.49,34.49,0,0,0,13.22,2.41,36.27,36.27,0,0,0,9.25-1A31.56,31.56,0,0,0,50.56,68a30.48,30.48,0,0,0,10-8.36,33.86,33.86,0,0,0,6.23-12.17H56.6a18.86,18.86,0,0,0-2.64.18,6.64,6.64,0,0,0-1.8.65,5.45,5.45,0,0,0-1.51,1.4,18,18,0,0,0-1.6,2.41c-.1.19-.48.65-1.14,1.58A21.68,21.68,0,0,1,45,56.87a20.93,20.93,0,0,1-4.63,3,14.58,14.58,0,0,1-6.42,1.39,13.33,13.33,0,0,1-5.85-1.49,17.68,17.68,0,0,1-6-4.46,24.18,24.18,0,0,1-4.72-7.8,29.42,29.42,0,0,1-2-11.43,42.55,42.55,0,0,1,.49-6.56C10.25,30.79,5,32.22.1,33.72c0,.77,0,1.55,0,2.34A39.56,39.56,0,0,0,2.69,51.2Z"/><path class="cls-2" d="M73.68,71.09a15.47,15.47,0,0,0,3.87-.37,4.71,4.71,0,0,0,2.36-1.21,4.81,4.81,0,0,0,1-2.32,17.66,17.66,0,0,0,.29-3.53V39.12H108.8l.1,32h6.32a15.87,15.87,0,0,0,4-.37,4.79,4.79,0,0,0,2.36-1.21,4.24,4.24,0,0,0,1.13-2.32,17.76,17.76,0,0,0,.28-3.53V33.5c-4.64-1.26-9.89-2.6-15.65-3.86l-26.07-.09v-4.2c-4.55-.49-9.25-.85-14.07-1V71.09Z"/><path class="cls-2" d="M122.39,71.09H134a4.64,4.64,0,0,0,2.45-.65,7.63,7.63,0,0,0,2.08-2.32,38.85,38.85,0,0,0,2.07-5l3.88-11.25h26.34l4,11.25a22.75,22.75,0,0,0,2.17,5,5.08,5.08,0,0,0,2,2.32,4,4,0,0,0,2.36.65h11.62l-6.73-17.91a200.49,200.49,0,0,1-34.88-10.9H147.7l.43-1.28a55.78,55.78,0,0,0-7.19-2.5c-1.54-.36-3.49-.9-5.78-1.55-.26.7-.51,1.38-.78,2.08C130.8,48.51,126.83,59.2,122.39,71.09Z"/><path class="cls-2" d="M194.24,68.4c1.51,1.67,4.15,2.5,7.74,2.5h38.14a3.1,3.1,0,0,0,2.07-.83,2.46,2.46,0,0,0,.95-1.95V61.33H209.53a3.41,3.41,0,0,1-2.46-.93,2.46,2.46,0,0,1-1.13-2.13V56.44c-5-.61-9.71-1.33-14.07-2.14v6.2C191.87,64.21,192.63,66.82,194.24,68.4Z"/><path class="cls-2" d="M289.75,65.51a21.51,21.51,0,0,0,8.12,4.84,33.41,33.41,0,0,0,12.37,2,42.11,42.11,0,0,0,11.61-1.4,22.53,22.53,0,0,0,7.83-3.81,17.36,17.36,0,0,0,4.72-5.76A26.75,26.75,0,0,0,337,54.27a44.83,44.83,0,0,0,.89-6.12q-7.06,1.23-14.58,2.4a24,24,0,0,1-1.51,5.11,10.74,10.74,0,0,1-4.15,4.74,12.71,12.71,0,0,1-7.36,1.86c-3.12,0-5.57-.56-7.27-1.86a10.24,10.24,0,0,1-4.16-4.74c-.24-.5-.47-1-.67-1.57-4.3.55-8.66,1.08-13.14,1.59l-1,.11a30.15,30.15,0,0,0,1.11,3A17.91,17.91,0,0,0,289.75,65.51Z"/><path class="cls-2" d="M372.54,70.9h4.82a8.43,8.43,0,0,0,3.11-.55,5.36,5.36,0,0,0,2.46-1.77,13.29,13.29,0,0,0,2.17-3.34c.56-1.31,1.22-3.07,2-5.12l7.7-24.32q-5.17,1.39-10.82,2.79c-2,5.87-4,11.81-6,17.91-1.78-5.37-3.45-10.44-5-15.3-3,.68-6.09,1.36-9.26,2Z"/><path class="cls-2" d="M349.6,71.09a15.92,15.92,0,0,0,4-.37,4.79,4.79,0,0,0,2.36-1.21,4.9,4.9,0,0,0,1-2.32,17.66,17.66,0,0,0,.29-3.53V44.54q-6.79,1.37-14.07,2.67V71.09Z"/><path class="cls-2" d="M398.79,71.09h6.32a15.87,15.87,0,0,0,4-.37,4.79,4.79,0,0,0,2.36-1.21,4.24,4.24,0,0,0,1.13-2.32,17.76,17.76,0,0,0,.28-3.53V30.49q-6.5,2.09-14.06,4.21Z"/><path class="cls-2" d="M255.33,74H270a4.06,4.06,0,0,0,4.06-4.06V56.78Q262,57.86,251.27,58.2V69.89A4.06,4.06,0,0,0,255.33,74Z"/></g></g></svg>