<?xml version="1.0" encoding="utf-8"?>
<!-- Generator: Adobe Illustrator 27.7.0, SVG Export Plug-In . SVG Version: 6.00 Build 0)  -->
<svg version="1.1" id="레이어_1" xmlns="http://www.w3.org/2000/svg" xmlns:xlink="http://www.w3.org/1999/xlink" x="0px"
	 y="0px" viewBox="0 0 412.9 74" style="enable-background:new 0 0 412.9 74;" xml:space="preserve">
<style type="text/css">
	.st0{fill:#48D8E5;}
	.st1{display:none;fill:#21A0AB;}
	.st2{display:none;fill:none;}
	.st3{fill:none;}
</style>
<g id="레이어_2_00000035532073202459797840000004610976895525695652_">
	<g id="레이어_3">
		<path class="st0" d="M66.8,47.6c-1.2,4.4-3.4,8.6-6.2,12.2c-1.3,1.6-2.7,3.1-4.2,4.5c-1.8,1.5-3.7,2.8-5.8,3.9
			c-2.3,1.2-4.8,2.2-7.4,2.8c-3,0.7-6.1,1.1-9.2,1c-4.5,0.1-9-0.8-13.2-2.4c-4.1-1.5-7.7-3.9-10.8-7c-3.2-3.1-5.7-7-7.3-11.2
			c-1.9-4.8-2.8-10-2.6-15.1C-0.1,31,0.7,25.9,2.5,21c1.5-4.2,3.8-8.1,6.9-11.3c2.9-3.1,6.6-5.6,10.6-7.1c4.4-1.7,9-2.6,13.7-2.5
			c2.9,0,5.8,0.3,8.7,0.9c2.4,0.6,4.7,1.4,7,2.4c1.9,1,3.7,2.2,5.4,3.4c1.4,1.2,2.8,2.6,4.1,4c2.6,3.2,4.6,6.8,5.8,10.7H53
			c-0.8,0.1-1.6-0.1-2.4-0.4c-0.6-0.2-1.1-0.5-1.5-0.9c-0.5-0.4-0.9-1-1.1-1.6c-0.4-0.6-0.8-1.3-1.3-2.1s-1.2-1.5-1.8-2.3
			c-0.8-0.8-1.6-1.5-2.5-2.1c-1.2-0.6-2.4-1.1-3.7-1.6c-1.6-0.4-3.3-0.6-5-0.6c-2.3,0-4.6,0.6-6.6,1.8c-2.3,1.2-4.3,3-5.9,5.1
			c-1.9,2.4-3.3,5.2-4.2,8.2c-1.1,3.6-1.7,7.4-1.6,11.3c-0.1,3.9,0.6,7.8,2,11.4c1.1,2.9,2.7,5.5,4.7,7.8c1.7,1.9,3.7,3.4,6,4.5
			c1.8,0.9,3.8,1.4,5.8,1.5c2.2,0,4.4-0.4,6.4-1.4c1.7-0.8,3.2-1.8,4.6-3c1.1-0.9,2.1-2,2.9-3.2c0.7-0.9,1-1.4,1.1-1.6
			c0.5-0.8,1-1.7,1.6-2.4c0.4-0.6,0.9-1,1.5-1.4c0.6-0.3,1.2-0.5,1.8-0.7c0.9-0.1,1.8-0.2,2.6-0.2L66.8,47.6z"/>
		<path class="st0" d="M122.9,0.7v63c0,1.2-0.1,2.4-0.3,3.5c-0.1,0.9-0.5,1.7-1.1,2.3c-0.7,0.6-1.5,1-2.4,1.2
			c-1.3,0.3-2.7,0.4-4,0.4h-6.3l-0.1-32H81.2v24.6c0,1.2-0.1,2.4-0.3,3.5c-0.1,0.8-0.5,1.7-1,2.3c-0.7,0.6-1.5,1-2.4,1.2
			c-1.3,0.3-2.6,0.4-3.9,0.4h-6.5V6.4c0-2.2,0.6-3.8,1.7-4.6c1.5-0.9,3.3-1.2,5-1.1h7.4v28.9l27.6,0.1V6.4c0-2.2,0.6-3.8,1.7-4.6
			c1.5-0.8,3.3-1.2,5-1.1L122.9,0.7z"/>
		<path class="st0" d="M192.9,71.2h-11.6c-0.8,0-1.7-0.2-2.4-0.7c-0.9-0.5-1.6-1.4-2-2.3c-0.9-1.6-1.6-3.3-2.2-5l-4-11.2h-26.3
			l-3.9,11.2c-0.6,1.7-1.3,3.4-2.1,5c-0.5,0.9-1.2,1.7-2.1,2.3c-0.7,0.4-1.6,0.7-2.4,0.7h-11.6c4.4-11.9,8.4-22.6,12-32.1
			c1.5-4,2.9-7.9,4.4-11.8c1.3-3.8,2.6-7.2,3.8-10.3s2.1-5.4,2.8-7.4s1-2.8,1-2.9c0.5-1.7,1.4-3.2,2.6-4.5c0.9-0.8,2.6-1.3,5.1-1.3
			h12.4L192.9,71.2z M147.6,42.4h19.8l-9.9-29L147.6,42.4z"/>
		<path class="st0" d="M205.9,10.6v20.4l34.9,0.1v6.4c0,0.8-0.3,1.6-0.9,2.1c-0.5,0.6-1.3,1-2.2,0.9h-31.9v17.8
			c0,0.9,0.4,1.7,1.1,2.1c0.7,0.6,1.5,1,2.4,0.9h33.6v6.8c0,0.8-0.4,1.5-1,2c-0.6,0.5-1.3,0.8-2.1,0.8h-38.1c-3.6,0-6.2-0.8-7.7-2.5
			s-2.4-4.2-2.4-7.9V6.7c0-2.2,0.5-3.8,1.6-4.6c1.5-0.9,3.2-1.3,4.9-1.1h44.8v6.4c0,0.8-0.2,1.6-0.8,2.2c-0.6,0.6-1.4,1-2.3,0.9
			H205.9z"/>
		<path class="st0" d="M330.7,0.6h7.3v37.5c0,2.8-0.1,5.6-0.1,8.3c-0.1,2.7-0.5,5.4-1,8c-0.5,2.5-1.4,4.8-2.5,7.1
			c-1.1,2.2-2.7,4.2-4.7,5.8c-2.3,1.8-5,3-7.8,3.8c-3.8,1-7.7,1.5-11.6,1.4c-4.2,0.1-8.4-0.6-12.4-2c-3-1-5.8-2.6-8.1-4.8
			c-2-1.8-3.6-4.1-4.6-6.7c-1-2.3-1.7-4.7-2.1-7.1c-0.4-2.2-0.7-4.4-0.7-6.6V6.2c0-2.2,0.6-3.8,1.7-4.6c1.5-0.9,3.2-1.2,4.9-1.1h7.6
			v40.7c0,2.6,0.1,5.2,0.5,7.7c0.2,2.4,0.8,4.7,1.8,6.8c0.9,2,2.3,3.6,4.2,4.7c1.7,1.3,4.1,1.8,7.3,1.8c2.6,0.1,5.2-0.5,7.4-1.8
			c1.8-1.1,3.3-2.8,4.1-4.7c0.9-2.2,1.5-4.5,1.8-6.8c0.2-2.5,0.4-5.1,0.5-7.8v-35c0-2.2,0.6-3.8,1.7-4.6
			C327.2,0.8,328.9,0.4,330.7,0.6z"/>
		<path class="st0" d="M412.8,1v62.8c0,1.2-0.1,2.4-0.3,3.5c-0.1,0.9-0.5,1.7-1.1,2.3c-0.7,0.6-1.5,1-2.4,1.2
			c-1.3,0.3-2.7,0.4-4,0.4h-6.3v-48l-11.7,37c-0.8,2-1.4,3.8-2,5.1c-0.6,1.2-1.3,2.3-2.2,3.3c-0.6,0.8-1.5,1.4-2.5,1.8
			c-1,0.4-2,0.6-3.1,0.6h-4.8l-15.2-47.5v40.2c0,1.2-0.1,2.4-0.3,3.5c-0.1,0.8-0.5,1.7-1,2.3c-0.7,0.6-1.5,1-2.4,1.2
			c-1.3,0.3-2.7,0.4-4,0.4h-6.4V6.7c0-2.2,0.6-3.8,1.7-4.6c1.5-0.9,3.3-1.3,5-1.1h9.7c0.3,0.9,0.8,2.4,1.5,4.5s1.5,4.5,2.5,7.2
			s1.8,5.9,2.9,9c1,3.3,2.1,6.6,3.2,9.8c2.5,7.6,5.2,16,8.2,25.1c2.3-6.8,4.5-13.4,6.7-19.9c0.9-2.7,1.9-5.6,2.9-8.5
			s1.9-5.8,2.8-8.6s1.8-5.6,2.6-8.2s1.5-4.9,2.3-7.1c0.3-1.3,1.3-2.4,2.6-2.8c1.2-0.3,2.4-0.5,3.7-0.5H412.8z"/>
		<path class="st0" d="M253.9,23.7h17.5c1.5,0,2.6,1.2,2.6,2.6v17.6c0,1.5-1.2,2.6-2.6,2.6h-17.5c-1.5,0-2.6-1.2-2.6-2.6V26.3
			C251.2,24.9,252.4,23.7,253.9,23.7z"/>
		<path class="st1" d="M253.9,51.2h17.5c1.5,0,2.6,1.2,2.6,2.6v17.6c0,1.5-1.2,2.6-2.6,2.6h-17.5c-1.5,0-2.6-1.2-2.6-2.6V53.8
			C251.2,52.4,252.4,51.2,253.9,51.2z"/>
		<path class="st2" d="M157.6,13.3L148.1,41l3.2,1.3h16.2L157.6,13.3z"/>
		<path class="st3" d="M394.8,35.8c1.4-0.4,2.7-0.7,4-1.1V23.1L394.8,35.8z"/>
		<path class="st3" d="M357.2,44.5c2.2-0.4,4.3-0.9,6.4-1.3l-6.4-19.8V44.5z"/>
		<path class="st1" d="M2.7,51.2c1.6,4.2,4.1,8.1,7.3,11.2c3,3.1,6.7,5.5,10.8,7c4.2,1.7,8.7,2.5,13.2,2.4c3.1,0.1,6.2-0.3,9.2-1
			c2.6-0.6,5-1.6,7.3-2.9c3.9-2,7.3-4.9,10-8.4c2.9-3.6,5-7.7,6.2-12.2H56.6c-0.9,0-1.8,0.1-2.6,0.2c-0.6,0.1-1.2,0.3-1.8,0.7
			c-0.6,0.4-1.1,0.8-1.5,1.4c-0.6,0.8-1.1,1.6-1.6,2.4c-0.1,0.2-0.5,0.7-1.1,1.6c-0.9,1.2-1.8,2.2-2.9,3.2c-1.4,1.2-3,2.2-4.6,3
			c-2,0.9-4.2,1.4-6.4,1.4c-2,0-4-0.6-5.9-1.5c-2.3-1-4.3-2.6-6-4.5c-2.1-2.3-3.7-4.9-4.7-7.8c-1.4-3.6-2.1-7.5-2-11.4
			c0-2.2,0.2-4.4,0.5-6.6C10.2,30.8,5,32.2,0.1,33.7c0,0.8,0,1.5,0,2.3C0,41.2,0.8,46.4,2.7,51.2z"/>
		<path class="st1" d="M73.7,71.1c1.3,0,2.6-0.1,3.9-0.4c0.9-0.2,1.7-0.6,2.4-1.2c0.5-0.7,0.9-1.5,1-2.3c0.2-1.2,0.3-2.3,0.3-3.5
			V39.1h27.6l0.1,32h6.3c1.3,0,2.7-0.1,4-0.4c0.9-0.2,1.7-0.6,2.4-1.2c0.6-0.6,1-1.4,1.1-2.3c0.2-1.2,0.3-2.3,0.3-3.5V33.5
			c-4.6-1.3-9.9-2.6-15.7-3.9l-26.1-0.1v-4.2c-4.6-0.5-9.2-0.9-14.1-1v46.7H73.7z"/>
		<path class="st1" d="M122.4,71.1H134c0.9,0,1.7-0.2,2.4-0.7c0.8-0.6,1.6-1.4,2.1-2.3c0.8-1.6,1.5-3.3,2.1-5l3.9-11.2h26.3l4,11.2
			c0.5,1.7,1.2,3.4,2.2,5c0.4,1,1.1,1.8,2,2.3c0.7,0.5,1.5,0.7,2.4,0.7H193l-6.7-17.9c-11.9-2.6-23.6-6.2-34.9-10.9h-3.7l0.4-1.3
			c-2.3-1-4.7-1.8-7.2-2.5c-1.5-0.4-3.5-0.9-5.8-1.5c-0.3,0.7-0.5,1.4-0.8,2.1C130.8,48.5,126.8,59.2,122.4,71.1z"/>
		<path class="st1" d="M194.2,68.4c1.5,1.7,4.1,2.5,7.7,2.5h38.1c0.8,0,1.5-0.3,2.1-0.8c0.6-0.5,1-1.2,0.9-1.9v-6.8h-33.6
			c-0.9,0-1.8-0.3-2.5-0.9c-0.7-0.5-1.2-1.3-1.1-2.1v-1.8c-5-0.6-9.7-1.3-14.1-2.1v6.2C191.9,64.2,192.6,66.8,194.2,68.4z"/>
		<path class="st1" d="M289.8,65.5c2.3,2.2,5.1,3.8,8.1,4.8c4,1.4,8.2,2.1,12.4,2c3.9,0.1,7.8-0.4,11.6-1.4c2.8-0.7,5.5-2,7.8-3.8
			c2-1.6,3.6-3.5,4.7-5.8c1.2-2.2,2.1-4.6,2.6-7.1c0.4-2,0.7-4.1,0.9-6.1c-4.7,0.8-9.6,1.6-14.6,2.4c-0.3,1.8-0.8,3.5-1.5,5.1
			c-0.9,2-2.3,3.6-4.1,4.7c-2.2,1.4-4.8,2-7.4,1.9c-3.1,0-5.6-0.6-7.3-1.9c-1.9-1.1-3.3-2.8-4.2-4.7c-0.2-0.5-0.5-1-0.7-1.6
			c-4.3,0.5-8.7,1.1-13.1,1.6l-1,0.1c0.3,1,0.7,2,1.1,3C286.2,61.4,287.7,63.7,289.8,65.5z"/>
		<path class="st1" d="M372.5,70.9h4.8c1.1,0,2.1-0.2,3.1-0.6c1-0.3,1.8-1,2.5-1.8c0.9-1,1.6-2.1,2.2-3.3c0.6-1.3,1.2-3.1,2-5.1
			l7.7-24.3c-3.4,0.9-7.1,1.9-10.8,2.8c-2,5.9-4,11.8-6,17.9c-1.8-5.4-3.5-10.4-5-15.3c-3,0.7-6.1,1.4-9.3,2L372.5,70.9z"/>
		<path class="st1" d="M349.6,71.1c1.3,0,2.7-0.1,4-0.4c0.9-0.2,1.7-0.6,2.4-1.2c0.5-0.7,0.9-1.5,1-2.3c0.2-1.2,0.3-2.3,0.3-3.5
			V44.5c-4.5,0.9-9.2,1.8-14.1,2.7v23.9H349.6z"/>
		<path class="st1" d="M398.8,71.1h6.3c1.3,0,2.7-0.1,4-0.4c0.9-0.2,1.7-0.6,2.4-1.2c0.6-0.6,1-1.4,1.1-2.3c0.2-1.2,0.3-2.3,0.3-3.5
			V30.5c-4.3,1.4-9,2.8-14.1,4.2L398.8,71.1z"/>
		<path class="st1" d="M255.3,74H270c2.2,0,4.1-1.8,4.1-4.1V56.8c-8,0.7-15.6,1.2-22.8,1.4v11.7C251.2,72.1,253,74,255.3,74
			C255.3,74,255.3,74,255.3,74z"/>
	</g>
</g>
<path class="st0" d="M253.9,51h17.5c1.5,0,2.6,1.2,2.6,2.6v17.6c0,1.5-1.2,2.6-2.6,2.6h-17.5c-1.5,0-2.6-1.2-2.6-2.6V53.6
	C251.2,52.2,252.4,51,253.9,51z"/>
</svg>
